<?xml version="1.0" standalone="no"?>
<!DOCTYPE svg PUBLIC "-//W3C//DTD SVG 20010904//EN"
 "http://www.w3.org/TR/2001/REC-SVG-20010904/DTD/svg10.dtd">
<svg version="1.0" xmlns="http://www.w3.org/2000/svg"
 width="868.000000pt" height="868.000000pt" viewBox="0 0 868.000000 868.000000"
 preserveAspectRatio="xMidYMid meet">
<metadata>
Created by potrace 1.11, written by Peter Selinger 2001-2013
</metadata>
<g transform="translate(0.000000,868.000000) scale(0.100000,-0.100000)"
fill="#000000" stroke="none">
<path d="M3315 8561 c3 -6 -3 -8 -15 -6 -11 2 -22 0 -25 -6 -4 -5 -23 -9 -43
-9 -20 0 -82 -11 -137 -25 -55 -14 -112 -25 -127 -25 -16 0 -54 -8 -85 -19
-32 -10 -85 -23 -118 -29 -33 -6 -98 -18 -145 -26 -47 -9 -114 -22 -150 -30
-36 -8 -94 -18 -130 -21 -135 -12 -166 -16 -195 -25 -16 -4 -48 -11 -70 -15
-41 -7 -134 -53 -169 -83 -34 -30 -86 -121 -95 -164 -11 -62 -51 -118 -131
-188 -39 -33 -95 -83 -123 -111 -29 -28 -61 -55 -72 -60 -11 -5 -49 -27 -84
-49 -34 -22 -65 -40 -68 -40 -13 0 -174 -131 -228 -186 -69 -70 -136 -158
-173 -229 -23 -45 -53 -150 -62 -218 -5 -40 -16 -92 -24 -116 -9 -24 -16 -52
-16 -63 0 -10 -9 -36 -19 -56 -33 -62 -71 -158 -71 -178 0 -32 -12 -64 -21
-58 -5 3 -9 -125 -9 -300 0 -168 4 -306 9 -306 4 0 11 -31 15 -68 4 -39 15
-82 26 -100 11 -18 20 -42 20 -55 0 -22 25 -103 61 -202 10 -27 21 -70 25 -95
4 -25 15 -61 26 -80 10 -19 18 -43 18 -53 0 -10 8 -35 19 -55 10 -20 32 -63
47 -95 16 -32 45 -73 65 -91 36 -33 72 -96 85 -149 3 -15 10 -30 15 -33 5 -3
16 -22 25 -42 8 -20 18 -39 22 -42 11 -8 47 -61 65 -95 8 -16 39 -56 69 -87
29 -31 61 -65 70 -75 62 -67 287 -233 317 -233 7 0 24 -9 38 -20 14 -11 33
-20 42 -20 9 0 31 -9 49 -20 18 -11 43 -20 55 -20 12 0 40 -10 62 -22 38 -22
50 -23 280 -23 227 0 243 1 292 23 28 12 61 22 73 22 12 0 33 9 47 20 14 11
33 20 42 20 9 0 27 9 41 20 14 11 32 20 41 20 9 0 27 8 40 19 13 10 35 22 49
26 14 4 36 14 50 23 14 9 45 20 70 25 146 28 179 17 203 -65 30 -105 37 -136
37 -167 0 -17 7 -48 16 -69 9 -20 20 -53 24 -72 11 -48 59 -161 76 -178 8 -7
14 -18 14 -23 0 -14 47 -84 105 -158 27 -36 57 -74 65 -86 56 -82 73 -112 97
-172 27 -67 27 -72 28 -288 0 -195 -2 -223 -18 -246 -10 -15 -20 -51 -24 -80
-3 -30 -14 -68 -24 -85 -11 -17 -19 -41 -19 -53 0 -12 -9 -39 -20 -61 -11 -22
-20 -45 -20 -52 0 -7 -8 -29 -18 -48 -11 -19 -22 -48 -26 -65 -4 -16 -16 -39
-26 -50 -27 -30 -60 -97 -60 -121 0 -12 -9 -41 -20 -65 -17 -39 -20 -66 -20
-244 0 -172 3 -206 19 -240 10 -22 21 -59 25 -83 3 -23 15 -59 26 -80 11 -20
20 -42 20 -49 0 -7 9 -30 20 -50 11 -21 20 -45 20 -53 0 -8 7 -28 16 -45 23
-45 58 -222 58 -295 0 -87 -7 -116 -55 -245 -10 -27 -21 -72 -25 -100 -3 -27
-13 -65 -21 -84 -8 -18 -18 -57 -22 -85 -4 -29 -15 -63 -24 -76 -12 -17 -17
-45 -17 -91 0 -64 1 -66 38 -96 20 -17 48 -34 62 -38 14 -4 35 -13 47 -21 12
-7 52 -17 90 -20 37 -4 70 -11 71 -15 5 -12 852 -12 852 0 0 4 24 11 54 15 29
3 73 15 97 26 24 11 58 20 74 20 17 0 44 9 60 20 17 11 41 20 55 20 14 0 37 8
50 17 40 28 91 56 155 84 30 13 55 30 106 71 25 21 57 42 70 48 13 6 44 24 69
40 25 16 56 35 70 42 32 17 147 92 180 118 14 11 28 20 32 20 4 0 56 35 115
78 60 42 128 90 153 106 25 16 57 37 72 48 15 10 31 18 35 18 29 0 255 261
331 383 20 32 47 74 60 93 12 19 22 40 22 47 0 7 11 36 25 65 14 30 25 63 25
73 0 11 9 39 20 61 11 23 20 51 20 62 0 12 9 41 20 65 11 24 20 52 20 62 0 10
8 26 19 36 10 10 22 34 26 53 4 19 20 57 36 85 15 27 39 73 53 101 15 29 38
68 51 88 14 20 25 43 25 51 0 7 11 26 24 42 13 15 27 43 30 60 4 18 11 35 16
38 7 4 30 50 87 175 14 30 33 71 43 90 10 19 21 53 25 74 3 21 12 48 20 60 7
12 16 37 20 56 4 19 14 44 22 56 7 12 16 45 20 74 3 28 14 68 24 88 11 20 19
57 19 82 0 25 9 72 20 104 14 42 20 87 21 155 0 53 5 146 11 206 9 100 14 213
19 426 0 42 -4 86 -10 97 -12 22 -14 107 -3 134 7 17 53 71 189 220 101 112
281 361 318 442 15 31 25 50 55 96 9 14 20 39 24 55 4 17 13 37 20 45 8 8 17
29 20 45 4 17 13 37 20 45 7 8 19 37 25 64 7 27 19 58 27 70 7 11 14 33 14 49
0 15 7 44 16 65 9 20 20 66 25 102 5 36 14 67 19 68 14 5 13 485 0 498 -6 6
-13 39 -16 75 -7 82 -41 200 -62 217 -9 6 -37 12 -62 12 -37 0 -53 -6 -78 -27
-201 -182 -329 -283 -414 -328 -37 -19 -75 -35 -84 -35 -9 0 -32 -10 -51 -21
-45 -28 -85 -22 -188 26 -109 52 -222 166 -275 277 -20 43 -52 94 -71 115 -19
21 -43 52 -54 69 -11 17 -72 109 -136 205 -64 96 -118 179 -120 184 -2 6 -26
47 -54 93 -87 144 -94 156 -110 187 -8 17 -28 53 -44 80 -16 28 -44 79 -62
115 -18 36 -41 76 -51 89 -10 13 -18 30 -18 37 0 16 -14 48 -44 99 -13 22 -59
110 -101 195 -100 197 -111 210 -186 210 -40 0 -63 -5 -80 -19 -36 -28 -300
-101 -364 -101 -26 0 -67 13 -230 72 -16 6 -40 18 -52 26 -13 8 -59 16 -107
19 -122 8 -199 -20 -281 -102 -59 -58 -152 -189 -203 -285 -18 -34 -85 -120
-116 -149 l-25 -24 -53 55 c-57 59 -112 104 -167 134 -18 11 -41 24 -50 29 -9
6 -47 29 -86 52 -82 48 -102 69 -139 143 -26 54 -27 61 -30 260 -3 178 -6 215
-26 280 -24 79 -56 124 -97 134 -13 4 -21 11 -18 16 4 6 -36 10 -105 10 -67 0
-109 -4 -105 -9z"/>
</g>
</svg>
